<svg data-v-0dd9719b="" version="1.0" xmlns="http://www.w3.org/2000/svg" xmlns:xlink="http://www.w3.org/1999/xlink" width="100%" height="100%" viewBox="0 0 340.000000 250.000000" preserveAspectRatio="xMidYMid meet" color-interpolation-filters="sRGB" style="margin: auto;"> <rect data-v-0dd9719b="" x="0" y="0" width="100%" height="100%" fill="#fff" fill-opacity="1" class="background"></rect> <rect data-v-0dd9719b="" x="0" y="0" width="100%" height="100%" fill="url(#watermark)" fill-opacity="1" class="watermarklayer"></rect> <g data-v-0dd9719b="" fill="#133359" class="icon-text-wrapper icon-svg-group iconsvg" transform="translate(52.349998474121094,95)"><g class="iconsvg-imagesvg" transform="translate(0,0)"><g><rect fill="#133359" fill-opacity="0" stroke-width="2" x="0" y="0" width="60" height="60" class="image-rect"></rect> <svg x="0" y="0" width="60" height="60" filtersec="colorsb8257439310" class="image-svg-svg primary" style="overflow: visible;"><svg xmlns="http://www.w3.org/2000/svg" viewBox="0 0 194.82000732421875 194.82000732421875"><g><g fill-rule="evenodd"><path fill="#133359" d="M194.82 15.46v179.36H72.15l97.94-97.94-14.51-14.52L43.12 194.82H15.46L194.82 15.46z"></path><path fill="#fe7c30" d="M0 0h122.68L24.73 97.94l14.51 14.51L151.7 0h29.55L0 181.25V0z"></path></g></g></svg></svg> <!----></g></g> <g transform="translate(67,2.333749771118164)"><g data-gra="path-name" fill-rule="" class="tp-name iconsvg-namesvg" transform="translate(0,0)"><g transform="scale(1)"><g><path d="M22.45-29.38L22.45-29.38 5.69-29.38 5.35-30.55 15.19-30.55 18.22-34.61Q21.62-31.88 23.66-30.05L23.66-30.05Q23.49-29.38 22.45-29.38ZM40.72-10.29L41.13-10.21 40.05-2.53Q42.29 1.99 40.88 3.15L40.88 3.15Q39.68 4.23 38.04 3.98 36.4 3.74 35.03 2.99 33.66 2.24 32.66 1.2L32.66 1.2Q27.64-4.15 25.57-12.78L25.57-12.78Q25.23-12.45 24.61-12.45L24.61-12.45 18.51-12.45 18.51-4.61Q19.8-4.77 26.98-5.69L26.98-5.69 27.02-5.19Q20.25-1.87 5.48 3.07L5.48 3.07Q5.02 3.9 4.19 4.11L4.19 4.11 0.91-2.57Q1.37-2.61 1.99-2.68 2.61-2.74 3.49-2.84 4.36-2.95 4.94-2.99L4.94-2.99 4.94-18.43 11.46-17.89Q11.33-17.14 10.25-16.93L10.25-16.93 10.25-3.57 12.7-3.86 12.7-22.54 19.88-21.91Q19.8-21.04 18.51-20.83L18.51-20.83 18.55-13.65 21.17-17.6Q23.74-15.19 25.44-13.49L25.44-13.49Q24.53-17.51 24.11-23.37L24.11-23.37 1.66-23.37 1.33-24.57 24.03-24.57Q23.74-29.76 23.74-36.15L23.74-36.15 31.54-35.4Q31.46-34.37 30.05-34.16L30.05-34.16Q29.88-28.31 30.05-24.57L30.05-24.57 32-24.57 34.95-28.18Q34.49-28.35 34.16-28.55L34.16-28.55Q33.58-31.38 31.25-34.12L31.25-34.12 31.54-34.32Q37.35-34.45 38.81-31.96L38.81-31.96Q39.72-30.42 38.56-29.01L38.56-29.01Q37.73-27.97 36.36-27.93L36.36-27.93Q39.97-25.23 41.38-24.07L41.38-24.07Q41.17-23.37 40.13-23.37L40.13-23.37 30.13-23.37Q30.84-10.13 36.52-4.77L36.52-4.77Q37.23-3.98 37.77-4.9L37.77-4.9Q39.06-6.89 40.72-10.29L40.72-10.29ZM47.19-35.57L47.19-35.57 47.48-35.78Q53.91-35.28 55.62-32.25L55.62-32.25Q56.65-30.42 55.45-28.8L55.45-28.8Q54.29-27.23 52.25-27.64L52.25-27.64Q51.42-27.81 50.59-28.35L50.59-28.35Q49.93-31.83 47.19-35.57ZM43.5-25.86L43.5-25.86 43.79-26.06Q49.97-25.77 51.63-22.87L51.63-22.87Q52.67-21.08 51.46-19.51L51.46-19.51Q50.3-17.97 48.31-18.43L48.31-18.43Q47.6-18.59 46.9-19.05L46.9-19.05Q46.28-22.41 43.5-25.86ZM57.11-29.43L57.11-29.43 57.77-29.26Q54.29-17.39 53.17-11.87L53.17-11.87Q52.54-8.96 52.59-7.55L52.59-7.55Q52.63-6.56 53.62-4.3 54.62-2.03 54.54 0.21L54.54 0.21Q54.49 1.91 53.33 2.99 52.17 4.07 50.39 4.07L50.39 4.07Q48.14 4.07 47.6 1.83L47.6 1.83Q48.27-1.58 48.19-4.38 48.1-7.18 47.31-7.72L47.31-7.72Q46.36-8.34 44.99-8.47L44.99-8.47 44.99-9.21 46.98-9.21Q47.36-9.21 47.52-9.26 47.69-9.3 47.9-9.48 48.1-9.67 48.31-10.13L48.31-10.13Q49.1-11.37 50.2-13.78 51.3-16.19 57.11-29.43ZM75.58-30.26L75.58-30.26 61.59-30.26Q63.58-20.05 69.56-12.66L69.56-12.66Q73.79-20.46 75.58-30.26ZM75.16-31.46L78.32-34.74 83.63-29.84Q83.26-29.14 81.72-28.97L81.72-28.97Q79.11-16.68 73.05-8.92L73.05-8.92Q77.86-4.44 84.71-1.12L84.71-1.12 84.46-0.58Q79.98-0.5 77.82 3.86L77.82 3.86Q72.67 0 69.31-4.81L69.31-4.81Q63.54 0.71 54.99 3.86L54.99 3.86 54.62 3.44Q61.97-1.16 67.03-8.55L67.03-8.55Q62.42-17.02 60.84-30.26L60.84-30.26 57.28-30.26 56.9-31.46 75.16-31.46ZM101.1-2.16L101.1-11.41 108.24-10.87Q108.12-9.96 106.83-9.79L106.83-9.79 106.83-2.03Q106.83 1.04 105.61 2.39 104.38 3.74 100.31 4.07L100.31 4.07Q100.19 1.33 99.61 0.33L99.61 0.33Q98.99-0.66 97.95-1.04L97.95-1.04Q97.04 0.58 95.5 1.16L95.5 1.16Q94.26 1.7 92.97 1.22 91.68 0.75 91.35-0.5L91.35-0.5Q91.06-1.66 91.66-2.57 92.26-3.49 93.43-3.94L93.43-3.94Q94.96-4.36 96.25-5.56 97.53-6.77 97.7-8.3L97.7-8.3 98.24-8.3Q99.48-4.65 98.32-1.74L98.32-1.74Q99.98-1.66 100.52-1.66L100.52-1.66Q101.1-1.66 101.1-2.16L101.1-2.16ZM107.79-7.22L107.79-7.22 108.24-7.39Q112.81-5.35 113.51-2.41L113.51-2.41Q114.01-0.42 112.6 0.75L112.6 0.75Q111.19 1.91 109.53 0.83L109.53 0.83Q109.11 0.58 108.74 0.17L108.74 0.17Q109.03-3.32 107.79-7.22ZM112.31-7.47L112.31-7.47 112.72-7.68Q118.99-6.31 120.65-2.91L120.65-2.91Q121.69-0.79 120.49 0.83L120.49 0.83Q119.37 2.32 117.41 1.74L117.41 1.74Q116.75 1.54 116.09 1.04L116.09 1.04Q115.46-2.7 112.31-7.47ZM108.95-30.42L103.22-30.42 103.22-28.14Q103.22-27.93 102.6-27.66 101.98-27.39 100.85-27.16 99.73-26.94 98.53-26.94L98.53-26.94 99.73-26.48 112.31-26.48 113.39-27.64Q111.73-27.19 109.86-27.19L109.86-27.19 108.95-27.19 108.95-30.42ZM99.4-25.28L99.4-22.25 112.77-22.25 112.77-25.28 99.4-25.28ZM99.4-21.04L99.4-17.89 112.77-17.89 112.77-21.04 99.4-21.04ZM125.01-12.24L125.01-12.24 113.64-12.24Q118.33-10.13 126.79-9.79L126.79-9.79 126.79-9.3Q123.89-8.34 123.1-4.03L123.1-4.03Q115.01-6.97 111.69-12.24L111.69-12.24 101.89-12.24Q95.58-6.06 86.08-3.86L86.08-3.86 85.79-4.27Q91.6-7.39 95.5-12.24L95.5-12.24 86.7-12.24 86.37-13.45 96.37-13.45Q97.33-14.73 97.91-15.85L97.91-15.85Q96.04-15.11 94.26-15.11L94.26-15.11 93.47-15.11 93.47-28.85 97.41-27.35 97.41-30.42 86.45-30.42 86.16-31.63 97.41-31.63 97.41-36.27 104.71-35.69Q104.63-34.78 103.22-34.57L103.22-34.57 103.22-31.63 108.95-31.63 108.95-36.27 116.38-35.69Q116.29-34.78 114.88-34.57L114.88-34.57 114.88-31.63 118.91-31.63 121.69-35.15Q124.64-32.83 126.38-31.13L126.38-31.13Q126.25-30.42 125.26-30.42L125.26-30.42 114.88-30.42 114.88-29.18 114.97-29.3 120.32-25.28Q119.86-24.65 118.78-24.45L118.78-24.45 118.78-16.98Q118.78-16.77 117.97-16.39 117.17-16.02 115.96-15.71 114.76-15.4 113.8-15.4L113.8-15.4 112.77-15.4 112.77-16.68 103.93-16.68 106.62-16.1Q106.37-15.23 104.51-15.19L104.51-15.19Q103.59-14.03 103.01-13.45L103.01-13.45 118.45-13.45 121.15-16.73Q124.26-14.48 126.17-12.91L126.17-12.91Q126.01-12.24 125.01-12.24ZM155.93-19.71L151.28-19.71 151.28-16.44Q151.2-13.24 150.66-10.79L150.66-10.79 155.93-10.79 155.93-19.71ZM141.07-19.71L141.07-10.79 144.72-10.79Q145.26-13.16 145.26-16.48L145.26-16.48 145.26-19.71 141.07-19.71ZM167.97-9.59L167.97-9.59 151.53-9.59Q153.07-7.06 156.03-5.4 159-3.74 162.07-3.07 165.14-2.41 169.21-2.08L169.21-2.08 169.21-1.58Q165.68-0.5 164.73 4.07L164.73 4.07Q159.04 2.2 155.7-0.85 152.36-3.9 150.78-9.59L150.78-9.59 150.37-9.59Q148.79-4.44 143.87-0.98 138.96 2.49 129.16 4.07L129.16 4.07 128.99 3.65Q136.01 1.33 139.6-1.97 143.19-5.27 144.43-9.59L144.43-9.59 128.91-9.59 128.58-10.79 135.26-10.79 135.26-23.2 141.45-20.92 145.26-20.92 145.26-26.77 152.4-26.11 152.4-29.47 144.72-29.47 144.72-25.86Q144.72-25.61 144.04-25.32 143.35-25.03 142.15-24.8 140.95-24.57 139.7-24.57L139.7-24.57 138.71-24.57 138.71-29.47 128.95-29.47 128.66-30.63 138.71-30.63 138.71-36.27 146.18-35.65Q146.09-34.7 144.72-34.49L144.72-34.49 144.72-30.63 152.4-30.63 152.4-36.27 160-35.65Q159.91-34.7 158.54-34.49L158.54-34.49 158.54-30.63 160.91-30.63 163.73-34.57Q167.05-31.96 168.88-30.13L168.88-30.13Q168.71-29.47 167.72-29.47L167.72-29.47 158.54-29.47 158.54-26.11Q158.54-25.86 157.86-25.57 157.18-25.28 155.95-25.05 154.73-24.82 153.4-24.82L153.4-24.82 152.4-24.82 152.4-25.32Q152.11-25.03 151.28-24.9L151.28-24.9 151.28-20.92 155.52-20.92 158.01-24.07 163.94-20.05Q163.53-19.47 161.99-19.17L161.99-19.17 161.99-11.29 164.36-14.69Q167.43-12.04 169.17-10.29L169.17-10.29Q168.96-9.59 167.97-9.59Z" transform="translate(-0.9100000262260437, 36.27000045776367)"></path></g> <!----> <!----> <!----> <!----> <!----> <!----> <!----></g></g> <g data-gra="path-slogan" fill-rule="" class="tp-slogan iconsvg-slogansvg" fill="#133359" transform="translate(27.97500228881836,47.380001068115234)"><!----> <!----> <g transform="scale(1, 1)"><g transform="scale(1)"><path d="M5.67-7.13L5.63-7.13L3.66 0L2.44 0L0.19-8.58L1.41-8.58L3.05-1.59L3.09-1.59L5.02-8.58L6.28-8.58L8.20-1.59L8.25-1.59L9.84-8.58L11.11-8.58L8.86 0L7.64 0L5.67-7.13ZM19.42-3.19L19.42-8.58L20.59-8.58L20.59-3.05Q20.45 0.05 17.07 0.14L17.07 0.14Q13.93 0.05 13.79-2.86L13.79-2.86L13.79-8.58L14.97-8.58L14.97-3.19Q15.01-0.84 17.12-0.80L17.12-0.80Q19.42-0.84 19.42-3.19L19.42-3.19ZM25.10-5.06L29.60-5.06L29.60-8.58L30.77-8.58L30.77 0L29.60 0L29.60-3.98L25.10-3.98L25.10 0L23.93 0L23.93-8.58L25.10-8.58L25.10-5.06ZM39.79 0L38.94-2.48L35.47-2.48L34.58 0L33.41 0L36.65-8.58L37.96-8.58L41.05 0L39.79 0ZM37.21-7.31L35.85-3.52L38.52-3.52L37.25-7.31L37.21-7.31ZM45.05-8.58L49.36-1.64L49.36-8.58L50.49-8.58L50.49 0L49.17 0L44.81-6.94L44.77-6.94L44.77 0L43.64 0L43.64-8.58L45.05-8.58ZM66.96-8.58L66.96 0L65.84 0L65.84-5.06Q65.84-5.77 65.84-7.22L65.84-7.22L63.40 0L62.23 0L59.84-7.22L59.79-7.22Q59.79-6.70 59.84-5.67L59.84-5.67Q59.84-5.16 59.84-5.06L59.84-5.06L59.84 0L58.67 0L58.67-8.58L60.35-8.58L62.84-1.31L65.27-8.58L66.96-8.58ZM75.88-3.19L75.88-8.58L77.05-8.58L77.05-3.05Q76.91 0.05 73.54 0.14L73.54 0.14Q70.40 0.05 70.26-2.86L70.26-2.86L70.26-8.58L71.43-8.58L71.43-3.19Q71.47-0.84 73.58-0.80L73.58-0.80Q75.88-0.84 75.88-3.19L75.88-3.19ZM87.33-8.58L84.10-3.47L84.10 0L82.92 0L82.92-3.47L79.69-8.58L81.05-8.58L83.49-4.45L85.97-8.58L87.33-8.58ZM90.11-8.58L91.28-8.58L91.28 0L90.11 0L90.11-8.58ZM96.21-8.58L100.53-1.64L100.53-8.58L101.65-8.58L101.65 0L100.34 0L95.98-6.94L95.93-6.94L95.93 0L94.81 0L94.81-8.58L96.21-8.58ZM111.41-3.61L108.79-3.61L108.79-4.59L112.54-4.59L112.54 0L111.79 0L111.51-1.08Q110.52 0.09 108.69 0.14L108.69 0.14Q106.96 0.14 106.02-0.75L106.02-0.75Q104.62-2.06 104.66-4.36L104.66-4.36Q104.99-8.63 108.74-8.81L108.74-8.81Q111.93-8.63 112.40-6L112.40-6L111.27-6Q110.80-7.78 108.69-7.83L108.69-7.83Q106.02-7.64 105.88-4.31L105.88-4.31Q105.88-0.75 108.74-0.75L108.74-0.75Q109.77-0.75 110.52-1.31L110.52-1.31Q111.46-2.06 111.41-3.61L111.41-3.61Z" transform="translate(-0.1875, 8.8125)"></path></g></g></g></g></g><defs v-gra="od"></defs></svg>